<svg width="131" height="40" viewBox="0 0 131 40" fill="none" xmlns="http://www.w3.org/2000/svg">
<path d="M124.031 29.8799C122.733 29.8799 121.578 29.6577 120.564 29.2132C119.551 28.7688 118.751 28.1644 118.164 27.3999C117.578 26.6177 117.249 25.7466 117.178 24.7866H121.684C121.738 25.3021 121.978 25.7199 122.404 26.0399C122.831 26.3599 123.356 26.5199 123.978 26.5199C124.547 26.5199 124.982 26.4132 125.284 26.1999C125.604 25.9688 125.764 25.6755 125.764 25.3199C125.764 24.8932 125.542 24.5821 125.098 24.3866C124.653 24.1732 123.933 23.9421 122.938 23.6932C121.871 23.4444 120.982 23.1866 120.271 22.9199C119.56 22.6355 118.947 22.1999 118.431 21.6132C117.916 21.0088 117.658 20.1999 117.658 19.1866C117.658 18.3332 117.889 17.5599 118.351 16.8666C118.831 16.1555 119.524 15.5955 120.431 15.1866C121.356 14.7777 122.449 14.5732 123.711 14.5732C125.578 14.5732 127.044 15.0355 128.111 15.9599C129.196 16.8844 129.818 18.111 129.978 19.6399H125.764C125.693 19.1244 125.462 18.7155 125.071 18.4132C124.698 18.111 124.2 17.9599 123.578 17.9599C123.044 17.9599 122.636 18.0666 122.351 18.2799C122.067 18.4755 121.924 18.751 121.924 19.1066C121.924 19.5332 122.147 19.8532 122.591 20.0666C123.053 20.2799 123.764 20.4932 124.724 20.7066C125.827 20.991 126.724 21.2755 127.418 21.5599C128.111 21.8266 128.716 22.271 129.231 22.8932C129.764 23.4977 130.04 24.3155 130.058 25.3466C130.058 26.2177 129.809 26.9999 129.311 27.6932C128.831 28.3688 128.129 28.9021 127.204 29.2932C126.298 29.6844 125.24 29.8799 124.031 29.8799Z" fill="#000"/>
<path d="M99.5054 22.2C99.5054 20.6711 99.7898 19.3289 100.359 18.1733C100.945 17.0178 101.736 16.1289 102.732 15.5067C103.728 14.8845 104.839 14.5733 106.065 14.5733C107.043 14.5733 107.932 14.7778 108.732 15.1867C109.55 15.5956 110.19 16.1467 110.652 16.84V9.93335H115.212V29.6667H110.652V27.5333C110.225 28.2445 109.612 28.8133 108.812 29.24C108.03 29.6667 107.114 29.88 106.065 29.88C104.839 29.88 103.728 29.5689 102.732 28.9467C101.736 28.3067 100.945 27.4089 100.359 26.2533C99.7898 25.08 99.5054 23.7289 99.5054 22.2ZM110.652 22.2267C110.652 21.0889 110.332 20.1911 109.692 19.5333C109.07 18.8756 108.305 18.5467 107.399 18.5467C106.492 18.5467 105.719 18.8756 105.079 19.5333C104.456 20.1733 104.145 21.0622 104.145 22.2C104.145 23.3378 104.456 24.2445 105.079 24.92C105.719 25.5778 106.492 25.9067 107.399 25.9067C108.305 25.9067 109.07 25.5778 109.692 24.92C110.332 24.2622 110.652 23.3645 110.652 22.2267Z" fill="#000"/>
<path d="M94.0991 17.2667C94.6324 16.4489 95.2991 15.8089 96.0991 15.3467C96.8991 14.8667 97.788 14.6267 98.7657 14.6267V19.4534H97.5124C96.3746 19.4534 95.5213 19.7023 94.9524 20.2C94.3835 20.68 94.0991 21.5334 94.0991 22.76V29.6667H89.5391V14.7867H94.0991V17.2667Z" fill="#000"/>
<path d="M71.0669 22.1999C71.0669 20.671 71.3513 19.3288 71.9202 18.1732C72.5069 17.0177 73.298 16.1288 74.2936 15.5066C75.2891 14.8844 76.4002 14.5732 77.6269 14.5732C78.6758 14.5732 79.5913 14.7866 80.3736 15.2132C81.1736 15.6399 81.7869 16.1999 82.2136 16.8932V14.7866H86.7736V29.6666H82.2136V27.5599C81.7691 28.2532 81.1469 28.8132 80.3469 29.2399C79.5647 29.6666 78.6491 29.8799 77.6002 29.8799C76.3913 29.8799 75.2891 29.5688 74.2936 28.9466C73.298 28.3066 72.5069 27.4088 71.9202 26.2532C71.3513 25.0799 71.0669 23.7288 71.0669 22.1999ZM82.2136 22.2266C82.2136 21.0888 81.8936 20.191 81.2536 19.5332C80.6313 18.8755 79.8669 18.5466 78.9602 18.5466C78.0536 18.5466 77.2802 18.8755 76.6402 19.5332C76.018 20.1732 75.7069 21.0621 75.7069 22.1999C75.7069 23.3377 76.018 24.2444 76.6402 24.9199C77.2802 25.5777 78.0536 25.9066 78.9602 25.9066C79.8669 25.9066 80.6313 25.5777 81.2536 24.9199C81.8936 24.2621 82.2136 23.3644 82.2136 22.2266Z" fill="#000"/>
<path d="M63.6848 14.6267C65.3914 14.6267 66.7603 15.1956 67.7914 16.3333C68.8225 17.4533 69.3381 19 69.3381 20.9733V29.6667H64.8048V21.5867C64.8048 20.5911 64.547 19.8178 64.0314 19.2667C63.5159 18.7156 62.8225 18.44 61.9514 18.44C61.0803 18.44 60.387 18.7156 59.8714 19.2667C59.3559 19.8178 59.0981 20.5911 59.0981 21.5867V29.6667H54.5381V9.93335H59.0981V16.7867C59.5603 16.1289 60.1914 15.6045 60.9914 15.2133C61.7914 14.8222 62.6892 14.6267 63.6848 14.6267Z" fill="#000"/>
<path d="M45.4385 29.8533C44.0696 29.8533 42.8429 29.631 41.7585 29.1866C40.6741 28.7422 39.8029 28.0844 39.1452 27.2133C38.5052 26.3422 38.1674 25.2933 38.1318 24.0666H42.9852C43.0563 24.7599 43.2963 25.2933 43.7052 25.6666C44.1141 26.0222 44.6474 26.1999 45.3052 26.1999C45.9807 26.1999 46.5141 26.0488 46.9052 25.7466C47.2963 25.4266 47.4918 24.991 47.4918 24.4399C47.4918 23.9777 47.3318 23.5955 47.0118 23.2933C46.7096 22.991 46.3274 22.7422 45.8652 22.5466C45.4207 22.351 44.7807 22.1288 43.9452 21.8799C42.7363 21.5066 41.7496 21.1333 40.9852 20.7599C40.2207 20.3866 39.5629 19.8355 39.0118 19.1066C38.4607 18.3777 38.1852 17.4266 38.1852 16.2533C38.1852 14.511 38.8163 13.151 40.0785 12.1733C41.3407 11.1777 42.9852 10.6799 45.0118 10.6799C47.0741 10.6799 48.7363 11.1777 49.9985 12.1733C51.2607 13.151 51.9363 14.5199 52.0252 16.2799H47.0918C47.0563 15.6755 46.8341 15.2044 46.4252 14.8666C46.0163 14.511 45.4918 14.3333 44.8518 14.3333C44.3007 14.3333 43.8563 14.4844 43.5185 14.7866C43.1807 15.071 43.0118 15.4888 43.0118 16.0399C43.0118 16.6444 43.2963 17.1155 43.8652 17.4533C44.4341 17.791 45.3229 18.1555 46.5318 18.5466C47.7407 18.9555 48.7185 19.3466 49.4652 19.7199C50.2296 20.0933 50.8874 20.6355 51.4385 21.3466C51.9896 22.0577 52.2652 22.9733 52.2652 24.0933C52.2652 25.1599 51.9896 26.1288 51.4385 26.9999C50.9052 27.871 50.1229 28.5644 49.0918 29.0799C48.0607 29.5955 46.8429 29.8533 45.4385 29.8533Z" fill="#000"/>
<path d="M11.4817 20.9429L20.3567 11.6164L21.448 8.83762L28.7728 0L23.4098 2.58169L21.796 2.34597L14.7231 7.02794L11.9369 8.03193L3.72412 22.0142L10.4814 21.4954L11.4817 20.9429Z" fill="#DF4D47"/>
<path d="M21.0152 14.565L12.1402 23.8915L11.0476 26.6703L0 40.0003L9.08706 32.925L10.7009 33.1619L17.7738 28.48L20.56 27.476L28.7728 13.4924L22.0155 14.0125L21.0152 14.565Z" fill="#DF4D47"/>
</svg>
